<svg id="normal" xmlns="http://www.w3.org/2000/svg" viewBox="0 0 197 202"><defs><style>.cls-1{fill:#ffb500;}.cls-2{fill:#f69008;}</style></defs><title>ico</title><path class="cls-1" d="M164.47,67.46c-5.1,44.81-60.18,125.44-60.18,125.44s-41.53-38.61-36.44-83.42c3.29-28.9,27.58-61.75,54.26-73.35,13.31-5.79,24.71-5.2,32.37.44S166.11,53,164.47,67.46Zm-18.37,8c2-17.92-9.72-26.62-26.25-19.42S88.25,83.58,86.22,101.5s9.71,26.61,26.25,19.41S144.06,93.36,146.1,75.45Z"/><path class="cls-2" d="M67.85,109.48c3.29-28.9,27.58-61.75,54.26-73.35,13.31-5.79,24.71-5.2,32.37.44,0,0-18.43-13.57-26-19.26S109.34,11,95.94,16.77C69.26,28.38,45,61.22,41.69,90.13c-5.1,44.81,36.43,83.42,36.43,83.42l26.17,19.35S62.76,154.29,67.85,109.48Z"/><path class="cls-2" d="M146.1,75.45c2-17.89-9.67-26.58-26.16-19.46v.1c-2,17.92-17.1,38.28-33.64,45.47l-.09,0c-2,17.84,9.76,26.49,26.26,19.31S144.06,93.36,146.1,75.45Z"/></svg>